<svg width="900" height="1241" viewBox="0 0 900 1241" fill="none" xmlns="http://www.w3.org/2000/svg">
<g clip-path="url(#clip0_714_2505)">
<path id="street" d="M153.499 944C150.082 943.733 148.895 943.485 147.999 943L108 942L105 965.5L186.5 973C211.942 975.605 226.805 977.68 254 982L289.5 988.5C292.926 989.405 294.899 990.959 298.5 997L325.999 1056C332.679 1068.58 336.383 1072.86 343 1074.5L401 1089.5L556.5 1126C567.945 1128.75 573.775 1132.37 583.5 1142L605.379 1162.5C608.739 1166.65 613.967 1168.81 626.5 1172.5L706 1195.5L775.5 1216C784.457 1218.49 787.602 1211.45 791.977 1193.59C791.618 1193.81 788.249 1192.54 784.999 1191.5C783.757 1191.1 782.532 1190.74 781.5 1190.5L769 1186.5C760.948 1183.97 755.159 1181.34 745.228 1176.83L744.5 1176.5C743.018 1176 738.864 1175.29 727.5 1173.5C710.741 1170.34 701.211 1168.13 684 1163.5C673.64 1160.76 667.696 1159.48 657 1157.5C651.712 1156.7 647.861 1155.84 643.5 1154.56C641.096 1153.86 638.538 1153.02 635.5 1152C626.999 1147.85 622.311 1144.99 614 1139.5C610.758 1137.14 607.989 1135.05 605.379 1133C600.128 1128.87 595.52 1124.87 589 1119C582.253 1112.16 580.444 1110.81 578.5 1110C578.146 1109.84 569.763 1107.63 564 1106.19C561.671 1105.61 559.769 1105.15 558.999 1105C558.669 1104.94 538.739 1100.03 522 1095.79C518.834 1094.99 515.783 1094.22 512.999 1093.5L467.5 1082.61L454.499 1079.5L392.999 1065.5L353.499 1056C351.83 1055.66 350.759 1055.35 349 1053.88C348.69 1053.63 348.359 1053.33 347.999 1053C347.499 1052.5 345.762 1049.99 344.499 1047L325.999 1011.5L322 1003.96L308.499 978.5C307.929 977.097 307.22 976.459 305.499 975.5C301.874 974.05 299.103 973.047 292.999 971C285.765 968.042 281.094 966.395 273 964.175C272.202 963.956 271.37 963.732 270.499 963.5C259.845 961.669 253.598 960.331 241.999 957.5C230.179 954.704 222.614 953.052 206.499 950C199.434 948.872 194.724 948.239 187.179 947.226L185.499 947C177.749 946.017 173.306 945.543 164.999 945L153.499 944Z" fill="#D9D9D9" stroke="black" stroke-width="2"/>
<path id="entry" d="M292.999 971C299.103 973.047 301.874 974.05 305.499 975.5C307.22 976.459 307.929 977.097 308.499 978.5L322 1003.96L342.5 940.5L305.499 928L289 923.5L273 964.175C281.094 966.395 285.765 968.042 292.999 971Z" fill="#D9D9D9" stroke="black" stroke-width="2"/>
<path id="river" d="M882 21.5C887.121 27.0296 889.807 30.27 894 36.5C894.22 26.3404 893.689 21.8079 891.001 17C886.92 12.5227 883.828 10.4739 878.001 7C871.634 2.89542 866.799 1.70671 856.001 1.5L840.501 10.5L794.501 48L748.501 85.5L733.001 99C728.417 101.849 726.499 102.147 724.501 98.5C723.518 95.1699 722.853 93.2706 720.501 89.5C715.761 83.1451 712.031 80.6265 704.501 77C697.951 74.0984 690.9 74.2902 682.001 85.5C675.161 96.9512 671.713 103.302 663.501 115C655.304 126.38 650.18 132.668 644.501 144.5C639.556 155.86 636.754 162.005 632.001 175C628.352 186.982 626.487 194.074 620.501 201C610.413 209.801 604.555 214.644 592.501 222.5C575.689 233.096 566.857 239.493 548.001 248.5C541.809 250.88 538.172 252.853 531.501 257C524.808 262.302 520.691 265.193 512.001 270C505.704 272.749 501.405 273.89 493.001 275.5C486.853 276.745 480.39 273.149 468.001 265.5C458.778 260.929 453.208 257.559 443.001 251C438.243 247.336 435.336 244.39 429.501 236.5C419.976 222.152 414.648 213.274 405.001 209L368.001 198.5L341.001 190.5C334.383 188.351 330.795 186.601 324.501 183C315.213 177.729 309.038 173.027 298.501 165.5C292.646 162.048 288.972 158.834 285.001 161.5L278 171.5C279.265 170.533 280.185 170.414 282.5 171.5L299 180.5C302.896 182.949 305.634 184.771 308.501 186.762C310.335 188.036 312.223 189.379 314.5 191C321.784 195.103 326.108 197.26 334 201C338.422 202.513 342.028 203.619 345.501 204.585C350.316 205.923 354.876 206.992 361 208.5L382.5 215C387.438 216.153 391.074 217.147 395.001 218.445C397.563 219.291 400.248 220.267 403.5 221.5C405.554 222.459 407.718 225.603 411 230L423 244C424.57 245.978 425.961 247.552 427.409 249C429.557 251.147 431.831 253.014 435 255.5C445.081 262.619 450.73 266.61 461 274C462.026 274.349 469.341 280.281 475.5 284C483.631 287.234 487.249 288.621 489 289C489.282 289.272 490.833 288.983 496.5 287.5C507.333 285.583 514.577 281.812 518 280.5C524.606 277.343 528.556 275.602 536 272.5C537.437 272.019 538.751 271.586 540.001 271.183C551.167 266.392 557.167 263.595 566.501 258L592.501 241C605.182 232.756 611.505 227.783 623.001 219C633.716 210.511 637.995 206.289 640.001 200.5C645.844 184.191 649.053 175.078 655.501 158.5C662.262 145.17 665.252 137.993 676.501 123C682.149 116.143 685.202 112.216 689.501 104.5C692.976 98.7347 695.221 95.9624 700.501 93C707.194 89.5317 709.917 90.0581 712.001 94C714.691 97.6481 716.263 99.0905 718.501 103C719.976 105.529 720.727 107.483 723 111.5C725 112.5 736.443 111.855 737.5 111.5C738.545 111.149 741.24 109.74 744.322 108C748.059 105.89 752.367 103.293 755 101.5C756.733 99.9624 758.391 98.457 760.001 96.9661C765.327 92.0339 770.131 87.2598 775.398 82L776.438 80.9615C779.827 77.5761 783.43 73.9773 787.5 70L788.529 69C798.28 59.5214 803.945 54.0608 812.73 45.5C816.071 42.2452 819.862 38.5422 824.5 34C833.072 27.3387 839.769 21.2717 846 17.5C851.926 14.5154 857.376 13.2245 865.5 11.5C867.004 11.3046 873.17 14.9127 882 21.5Z" fill="#D9D9D9" stroke="black" stroke-width="2"/>
<path id="3" d="M342 929.5L369 920.5L371.583 921C369.032 917.086 365.789 913.2 361.222 908.5C356.016 903.141 349.088 896.724 339.5 888L325.5 916.5L324.5 925L342 929.5Z" fill="#D9D9D9" stroke="black" stroke-width="1"/>
<path id="4" d="M316.5 803.5C328.018 813.321 332.713 816.581 349 832.5L365 781.794L342.5 772.5C324.833 790.976 316.887 799.678 316.5 803.5Z" fill="#D9D9D9" stroke="black" stroke-width="1"/>
<path id="5" d="M751 734C745 734.5 715 731.5 711 731.5L701.5 814.739L749 831.045L753 828.5C755 826.833 759.2 823.9 760 823.5C760.544 823.228 763.12 823.249 765.5 823.342L762.5 734.679C758.454 734.121 753.985 733.751 751 734Z" fill="#D9D9D9" stroke="black" stroke-width="1"/>
<path id="6" d="M653 865L653.849 865.262C669.224 870.003 678.275 872.795 695 878C697.383 877.02 701.99 874.908 710.5 871C720.473 870.377 724.542 870.749 729.5 872.5C735.781 862.82 737.361 859.647 737.5 857.5C738.14 846.301 738.547 841.349 739.5 840.5C742.812 836.521 744.547 834.741 747.5 832L749 831.045L701.5 814.739L660 800.493L637.5 861C641.555 861.404 645.918 863.389 653 865Z" fill="#D9D9D9" stroke="black" stroke-width="1"/>
<path id="7" d="M711 731.5C707 731.5 682.5 729 672.5 722.5C672.046 722.205 671.544 721.88 671 721.53C656.649 734.313 646.089 744.126 635.674 755C627.736 763.288 619.883 772.193 610.5 783.5L660 800.493L701.5 814.739L711 731.5Z" fill="#D9D9D9" stroke="black" stroke-width="1"/>
<path id="8" d="M613 851C622.603 858.338 630.084 860.379 637.5 861L660 800.493L610.5 783.5L586.331 808C594.652 823.009 599.728 831.994 613 851Z" fill="#D9D9D9" stroke="black" stroke-width="1"/>
<path id="9" d="M626 691.5C623.988 688.996 614.326 699.034 609.5 703C601.667 710.833 585.7 726.6 584.5 727L635.674 755C646.089 744.126 656.649 734.313 671 721.53C659.281 715.117 629.465 695.814 626 691.5Z" fill="#D9D9D9" stroke="black" stroke-width="1"/>
<path id="10" d="M460.311 882.5L471.001 872.5L473.119 870C453.254 855.006 441.835 846.666 420.601 832C417.839 836.036 415.053 840.02 412.205 844C429.664 856.531 440.252 865.066 460.311 882.5Z" fill="#D9D9D9" stroke="black" stroke-width="1"/>
<path id="11" d="M342.5 772.5L336.5 763.5C335.097 762.314 326.482 762.828 293.5 766.411C286.327 759.513 284.675 757.059 285 754.5C282.651 753.179 272.469 758.298 270 762.588L316.5 803.5C316.887 799.678 324.833 790.976 342.5 772.5Z" fill="#D9D9D9" stroke="black" stroke-width="1"/>
<path id="12" d="M285.001 754.5C292.313 740.32 294.509 735.311 293.501 734C293.001 733 291.898 730.356 290.501 730C287.001 729.107 277.188 724.9 275.001 723C270.847 716.683 267.542 711.58 264.65 707L238.645 735L270.001 762.588C272.47 758.298 282.652 753.179 285.001 754.5Z" fill="#D9D9D9" stroke="black" stroke-width="1"/>
<path id="13" d="M264.65 707C259.782 699.289 256.089 693.057 251.5 685L245.855 672.5L212 711.558L238.644 735L264.65 707Z" fill="#D9D9D9" stroke="black" stroke-width="1"/>
<path id="14" d="M188.5 693.5C189.619 694.581 191.944 696.383 192 697.5C192.008 697.663 192.007 697.844 192 698.041L200 701L212 711.558L245.855 672.5L244.5 669.5C242.646 665.788 240.944 664.904 237.5 664C231.421 662.175 225.461 660.566 214 657.5C206.228 671.533 200.209 678.862 185.342 690.5L188.5 693.5Z" fill="#D9D9D9" stroke="black" stroke-width="1"/>
<path id="15" d="M96.9995 611.5L114.499 626.5L137.499 646.5L154.999 662L156.602 663.5C166.948 651.454 172.574 645.289 182 635.711C175.661 632.39 165.107 627 164 627C162.8 627 157.5 626.333 154.999 626C153.067 626.858 151.909 627.179 149.5 627L146 626C143.604 624.566 143.123 623.327 142.5 621L91.5 606.585L96.9995 611.5Z" fill="#D9D9D9" stroke="black" stroke-width="1"/>
<path id="16" d="M214 657.5C201.369 653.229 198.957 651.659 195.5 649C190.418 642.841 187.747 640.168 183.5 636.5C183.035 636.254 182.532 635.99 182 635.711C172.573 645.289 166.948 651.454 156.602 663.5L178.499 684L185.341 690.5C200.208 678.861 206.227 671.533 214 657.5Z" fill="#D9D9D9" stroke="black" stroke-width="1"/>
<path id="17" d="M73.5 590.5L91.5005 606.585L142.501 621C146.668 618.161 148.617 617.472 151.501 617.5C157.18 610.682 160.599 605.244 167.001 593.693C138.599 592.724 108.05 591.68 73.5 590.5Z" fill="#D9D9D9" stroke="black" stroke-width="1"/>
<path id="18" d="M11.4991 527.5C9.83248 530.333 5.85038 536.185 4.49914 538C2.83497 540.235 3.78533 542.967 4.49914 543.5L11.4991 548L55.4995 577.5L73.4995 590.5L108 543C108.333 542.314 108.653 541.648 108.961 541C114.716 528.874 116.114 523.07 118 513.5H21.5432C18.4716 517.628 15.4154 521.884 11.4991 527.5Z" fill="#D9D9D9" stroke="black" stroke-width="1"/>
<path id="19" d="M108.001 543L73.5 590.5C108.05 591.681 138.599 592.724 167.001 593.693C181.654 594.193 195.736 594.673 209.501 595.142L225.001 595.67C210.09 572.224 199.952 557.992 180.001 531.543C179.669 531.694 179.336 531.846 179.001 532L154.001 549H121.001L108.961 541C108.654 541.648 108.334 542.314 108.001 543Z" fill="#D9D9D9" stroke="black" stroke-width="1"/>
<path id="20" d="M51.9989 472.999L31.4989 500.499C27.6079 505.493 24.568 509.434 21.543 513.5H118L132.5 499L59.9998 462.188L51.9989 472.999Z" fill="#D9D9D9" stroke="black" stroke-width="1"/>
<path id="21" d="M132.5 499C140.005 494.036 144.31 491.362 151 485.5C152.323 482.44 151.899 480.667 151 477.5L77.706 438.5L70.4991 448L60 462.188L132.5 499Z" fill="#D9D9D9" stroke="black" stroke-width="1"/>
<path id="22" d="M150.999 477.5L171.999 457.5L173.499 455L94.7065 416L92.4982 419L77.7051 438.5L150.999 477.5Z" fill="#D9D9D9" stroke="black" stroke-width="1"/>
<path id="23" d="M143.499 351.5L118.999 383L94.707 416L173.5 455C177.136 447.436 179.887 443.029 185.5 435C189.215 429.713 191.941 426.757 198 421.5L221 410C206.137 405.879 196.382 401.686 179.495 394.428L178.5 394C172.889 393.517 169.697 393.349 163.5 394L158.96 381L146.911 346.5L143.499 351.5Z" fill="#D9D9D9" stroke="black" stroke-width="1"/>
<path id="24" d="M155.956 333.25L146.912 346.5L158.96 381H172C174.01 381.409 181.102 384.626 196 391.5C212.008 397.633 220.985 400.213 237 404C239.918 401.052 241.524 399.499 244 398C251.935 397.57 255.249 398.673 258.5 404L263 414L278.5 365.5L237.5 354.71L155.956 333.25Z" fill="#D9D9D9" stroke="black" stroke-width="1"/>
<path id="25" d="M187.999 291C187.199 291.8 172.332 310.667 164.999 320L155.955 333.25L237.5 354.71L276 321.5L268.083 312C267.32 310.515 266.906 309.986 266 309.5L195.5 280.024C191.723 285.638 188.433 290.566 187.999 291Z" fill="#D9D9D9" stroke="black" stroke-width="1"/>
<path id="26" d="M298.999 180.5L282.499 171.5C280.184 170.414 279.264 170.533 277.999 171.5L270.499 180.5L248.499 208.5C243.536 215.053 233.265 228.92 231.999 230C231.086 230.779 222.499 243 218.499 249.5C215.559 253.831 209.14 261.488 207.499 263C206.167 264.228 200.421 272.709 195.5 280.024L266 309.5C266.906 309.986 267.321 310.515 268.083 312C272.447 307.89 275.686 305.962 281.444 302.533L281.5 302.5C272.36 293.636 263.502 289.716 248.499 282.5C247.374 281.49 247.036 280.787 246.5 279.5C245.329 277.304 281.928 228.262 308.5 186.762C305.633 184.771 302.895 182.949 298.999 180.5Z" fill="#D9D9D9" stroke="black" stroke-width="1"/>
<path id="27" d="M333.999 201C326.107 197.26 321.783 195.103 314.499 191C312.222 189.379 310.334 188.036 308.5 186.762C281.928 228.262 245.329 277.304 246.5 279.5C247.036 280.787 247.374 281.49 248.499 282.5C263.502 289.716 272.36 293.636 281.5 302.5L285 307.5C285.381 308.269 289.927 307.944 303 306.5V294.5C323.311 249.841 329.298 238.701 345.5 204.585C342.027 203.619 338.421 202.513 333.999 201Z" fill="#D9D9D9" stroke="black" stroke-width="1"/>
<path id="28" d="M382.499 215L360.999 208.5C354.875 206.991 350.315 205.923 345.5 204.584C329.298 238.701 323.311 249.84 303 294.5V306.5L334 304.5C338.328 305.177 342.91 307.601 356.5 317C360.039 321.142 361.278 323.578 363 328L395 218.445C391.073 217.147 387.437 216.153 382.499 215Z" fill="#D9D9D9" stroke="black" stroke-width="1"/>
<path id="29" d="M422.999 244L410.999 230C407.717 225.602 405.553 222.459 403.499 221.5C400.247 220.267 397.562 219.291 395 218.445L363 328L366.5 345C368.474 348.968 370.767 350.721 377 353C387.383 354.532 393.197 355.074 403.499 354.71C412.294 353.707 417.113 352.685 425.5 350L426.5 300L427.408 249C425.96 247.552 424.569 245.977 422.999 244Z" fill="#D9D9D9" stroke="black" stroke-width="1"/>
<path id="30" d="M535.999 272.5C528.555 275.602 524.605 277.343 517.999 280.5C514.576 281.812 507.332 285.583 496.499 287.5C490.832 288.983 489.281 289.272 488.999 289C487.248 288.621 483.63 287.234 475.499 284C469.34 280.281 462.025 274.349 460.999 274C450.729 266.61 445.08 262.619 434.999 255.5C431.83 253.014 429.556 251.147 427.408 249L426.5 300L425.5 350C432.946 352.475 436.799 353.598 440.5 353L498.5 328C508.064 321.783 512.571 317.011 520.5 307.5C528.044 290.582 532.336 283.386 540 271.183C538.75 271.586 537.436 272.019 535.999 272.5Z" fill="#D9D9D9" stroke="black" stroke-width="1"/>
<path id="31" d="M248.499 408C239.579 413.043 232.818 416.435 217 423.5C215.908 423.856 215.038 423.956 213.5 423.904C222.308 434.208 227.344 440.191 237.5 453.5L262 483.5C264.01 485.971 268.27 490.404 269.274 490.5C274.951 482.422 276.612 478.99 277.5 474.5C276.663 461.799 276.086 455.821 275 445.5C276.593 435.499 277.144 428.926 277.5 423.5C275.057 422.739 273.015 422.509 259.5 425C254.558 415.524 252.229 412.195 248.499 408Z" fill="#D9D9D9" stroke="black" stroke-width="1"/>
<path id="32" d="M268.083 492.5L269.274 490.5C268.27 490.404 264.01 485.971 262 483.5L237.5 453.5L208 484L235.384 511L268.083 492.5Z" fill="#D9D9D9" stroke="black" stroke-width="1"/>
<path id="33" d="M204.999 425C203.851 425.331 202.562 426.985 183.999 448C181.82 451.745 181.308 454.55 180.885 460C190.561 468.42 196.896 473.602 207.999 484L237.499 453.5C227.344 440.191 222.307 434.208 213.499 423.904C209.839 423.832 208.004 424.135 204.999 425Z" fill="#D9D9D9" stroke="black" stroke-width="1"/>
<path id="34" d="M180.5 462.188C170.741 472.629 165.175 478.362 155.955 489.5C163.743 502.343 167.843 509.612 173.5 523C188.254 519.038 196.663 516.939 212 513.5C220.936 512.132 225.824 511.842 234.5 511.5L235.383 511L208 484C196.896 473.603 190.561 468.42 180.885 460L180.5 462.188Z" fill="#D9D9D9" stroke="black" stroke-width="1"/>
<path id="35" d="M155.956 489.5C142.398 500.851 133.022 507.952 125.001 517C120.443 524.731 118.63 531.634 119.501 537C120.722 539.832 121.717 540.488 125.001 541C136.684 541.272 142.966 541.221 154.001 541C157.977 539.248 162.89 534.368 173.501 523C167.844 509.612 163.744 502.343 155.956 489.5Z" fill="#D9D9D9" stroke="black" stroke-width="1"/>
<path id="36" d="M278.5 365.5L263 414C268.403 415.679 273.775 414.358 287.5 408C293.984 412.456 296.649 415.37 299.269 421.5L318 376.198L278.5 365.5Z" fill="#D9D9D9" stroke="black" stroke-width="1"/>
<path id="37" d="M299.27 421.5C301.072 424.554 302.17 425.94 304.5 427.5L335.5 445.279L351.5 385.271L318 376.198L299.27 421.5Z" fill="#D9D9D9" stroke="black" stroke-width="1"/>
<path id="38" d="M388 423C391.248 417.867 395.723 409.285 398.5 398L351.5 385.271L335.5 445.279L338.5 447C340.397 447.232 384.711 426.173 388 423Z" fill="#D9D9D9" stroke="black" stroke-width="1"/>
<path id="39" d="M318 376.198L351.5 385.271L398.5 398C414.048 382.161 430.055 366.168 431 364.5C432.441 359.49 432.528 357.886 431 358C421.671 360.005 415.835 361.22 398 364.5C377.122 360.574 372.786 359.117 365.14 356.547L365 356.5C359.394 348.176 357.42 344.065 355.5 337.5C355.529 331.856 355.045 329.653 355 328C352.928 323.628 350.251 321.566 344 318C334.397 340.087 328.684 352.82 318 376.198Z" fill="#D9D9D9" stroke="black" stroke-width="1"/>
<path id="40" d="M237.5 354.71L278.5 365.5L318 376.198C328.684 352.82 334.397 340.087 344 318C333.024 311.949 328.235 310.048 323.5 311C298.657 313.669 289.07 316.148 276 321.5L237.5 354.71Z" fill="#D9D9D9" stroke="black" stroke-width="1"/>
<path id="41" d="M809.282 149C796.292 125.733 789.025 110.522 776.802 84.94L775.397 82C770.13 87.2598 765.326 92.0339 760 96.9661C772.199 125.344 779.169 141.909 790.362 165.5C796.117 160.112 801.986 155.006 809.282 149Z" fill="#D9D9D9" stroke="black" stroke-width="1"/>
<path id="42" d="M661.5 648.5C653.457 662.978 647.248 670.515 632 682.5L678.5 716.891C693.505 702.27 701.098 690.687 714 667L661.774 647L661.5 648.5Z" fill="#D9D9D9" stroke="black" stroke-width="1"/>
<path id="43" d="M151.5 617.5L168 623L183.5 629C188.556 634.714 192.429 639.142 195.5 642.174C201.232 621.201 204.233 611.573 209.5 595.142C195.736 594.673 181.654 594.193 167 593.693C160.598 605.244 157.18 610.682 151.5 617.5Z" fill="#D9D9D9" stroke="black" stroke-width="1"/>
<path id="44" d="M201 646.5C205.664 648.03 210.847 649.897 229 656.745C231.139 628.078 232.188 615.699 234 595.977L225 595.67L209.5 595.142C204.233 611.573 201.232 621.201 195.5 642.174C197.697 644.344 199.484 645.799 201 646.5Z" fill="#D9D9D9" stroke="black" stroke-width="1"/>
<path id="45" d="M231 657.5C235.39 659.823 242.527 656.572 258.122 647.234C257.859 630.806 258.324 619.136 259.5 596.844L248.131 596.457C243.433 596.298 238.727 596.138 234 595.977C232.188 615.699 231.139 628.078 229 656.745L229.772 657.036L231 657.5Z" fill="#D9D9D9" stroke="black" stroke-width="1"/>
<path id="46" d="M261 645.5C274.174 642.049 284.793 639.425 293.672 637.5C293.489 620.938 293.537 612.592 293.672 598.006C282.181 597.615 270.842 597.23 259.5 596.844C258.324 619.136 257.859 630.806 258.122 647.234C259.051 646.677 260.01 646.099 261 645.5Z" fill="#D9D9D9" stroke="black" stroke-width="1"/>
<path id="47" d="M334.499 633.5L335.499 634.5C336.353 621.901 336.161 613.973 335.499 599.425C321.168 598.939 307.312 598.469 293.671 598.005C293.536 612.591 293.487 620.937 293.671 637.5C312.532 633.411 323.54 632.48 334.499 633.5Z" fill="#D9D9D9" stroke="black" stroke-width="1"/>
<path id="48" d="M350 649C358.565 649.151 364.668 648.719 370 647.233L373 600.696C360.057 600.257 347.609 599.835 335.5 599.425C336.162 613.973 336.354 621.901 335.5 634.5C339.475 637.972 340.63 638.522 350 649Z" fill="#D9D9D9" stroke="black" stroke-width="1"/>
<path id="49" d="M383.5 640.5C388.663 640.401 392.963 639.988 407.5 637.5L411.5 602C398.126 601.547 385.338 601.114 373 600.696L370 647.233C374.713 645.92 378.824 643.784 383.5 640.5Z" fill="#D9D9D9" stroke="black" stroke-width="1"/>
<path id="50" d="M409 645C404.348 642.67 398.84 643.224 387 645.5C372.734 652.285 364.732 653.668 350.5 655L346 671.5C351.214 670.231 365.764 672.619 401.5 679.5C411.124 658.399 412.051 651.655 409 645Z" fill="#D9D9D9" stroke="black" stroke-width="1"/>
<path id="51" d="M346 671.5L340 701.5C345.653 699.737 358.926 701.555 390.5 707L401.5 679.5C365.764 672.619 351.214 670.231 346 671.5Z" fill="#D9D9D9" stroke="black" stroke-width="1"/>
<path id="52" d="M380 736L390.5 707C358.926 701.555 345.653 699.737 340 701.5L337.25 715.25L334.5 729C360.479 733.83 370.977 735.482 380 736Z" fill="#D9D9D9" stroke="black" stroke-width="1"/>
<path id="53" d="M334.5 729L329 754.5C336.206 755.802 340.652 758.964 349 767C353.551 771.351 357.098 773.167 366.5 774.5L380 736C370.977 735.482 360.479 733.83 334.5 729Z" fill="#D9D9D9" stroke="black" stroke-width="1"/>
<path id="54" d="M329 754.5L334.5 729L337.25 715.25C331.555 713.849 325.354 708.82 317.429 699.5C311.243 714.313 307.484 721.515 300.5 733L290.5 756.889L298.5 760L329 754.5Z" fill="#D9D9D9" stroke="black" stroke-width="1"/>
<path id="55" d="M288 724L300.5 733C307.484 721.515 311.243 714.312 317.429 699.5C312.538 693.748 306.99 686.361 300.5 677.185C282.894 686.252 275.056 691.151 265.5 699.5L288 724Z" fill="#D9D9D9" stroke="black" stroke-width="1"/>
<path id="56" d="M250 668L265.5 699.5C275.056 691.151 282.894 686.252 300.5 677.184C294.537 668.753 287.777 658.809 280 647.233C262.765 647.358 255.933 651.75 250 668Z" fill="#D9D9D9" stroke="black" stroke-width="1"/>
<path id="57" d="M324 639C301.697 642.115 287.8 643.834 280 647.234C287.777 658.81 294.537 668.753 300.5 677.185C306.99 686.362 312.538 693.748 317.429 699.5C319.468 679.075 320.847 665.891 324 639Z" fill="#D9D9D9" stroke="black" stroke-width="1"/>
<path id="58" d="M346.001 671.5L350.501 655C335.808 643.026 329.292 638.616 324.001 639C320.848 665.891 319.468 679.075 317.43 699.5C325.355 708.82 331.556 713.849 337.251 715.25L340.001 701.5L346.001 671.5Z" fill="#D9D9D9" stroke="black" stroke-width="1"/>
<path id="59" d="M259.5 596.844C263.75 571.466 265.576 563.434 268.083 558.5C256.004 544.43 249.374 534.815 237.5 518C210.52 520.576 197.634 523.548 180 531.544C199.951 557.992 210.089 572.224 225 595.67L234 595.977L248.131 596.458L259.5 596.844Z" fill="#D9D9D9" stroke="black" stroke-width="1"/>
<path id="60" d="M276 494.5C252.656 512.457 244.907 516.901 237.5 518C249.374 534.815 256.004 544.43 268.083 558.5C301.293 534.512 324.068 518.694 342 508.77C311.766 490.212 297.969 482.669 283.5 478.471C282.512 485.067 280.052 489.798 276 494.5Z" fill="#D9D9D9" stroke="black" stroke-width="1"/>
<path id="61" d="M293.672 598.006C307.313 598.469 321.169 598.939 335.5 599.425L340 568.5C339.239 568.382 351.684 560.278 384 539.5C382.4 536.07 378.391 518.06 373.536 496C364.089 498.021 354.158 502.041 342 508.77C324.068 518.694 301.293 534.512 268.083 558.5C265.576 563.434 263.75 571.466 259.5 596.844C270.842 597.23 282.18 597.615 293.672 598.006Z" fill="#D9D9D9" stroke="black" stroke-width="1"/>
<path id="62" d="M411.5 602L432.5 573L384 539.5C351.684 560.278 339.239 568.382 340 568.5L335.5 599.425C347.609 599.836 360.057 600.258 373 600.696C385.338 601.114 398.126 601.547 411.5 602Z" fill="#D9D9D9" stroke="black" stroke-width="1"/>
<path id="63" d="M366 462C365.504 461.545 368.825 455.497 375.5 443.5C376.011 441.304 363.051 446.789 346 453.5C337.159 456.286 325.321 450.151 296.5 430.5L287.5 423.5C283.478 432.982 281.635 438.224 281.5 447C283.877 461.483 284.6 471.131 283.5 478.471C297.969 482.669 311.766 490.212 342 508.77C354.158 502.041 364.089 498.021 373.536 496C371.165 485.224 368.592 473.481 366 462Z" fill="#D9D9D9" stroke="black" stroke-width="1"/>
<path id="64" d="M490.5 721C500.417 717.977 506.815 713.862 520.5 700.5C521.746 698.933 522.901 697.41 524 695.875C514.251 694.367 505.352 693.36 495 692.696C482.323 691.882 467.468 691.581 446.206 691.5C446.181 692.637 446.115 693.79 446 695C446.154 703.848 448.596 707.217 455.5 711.5C464.222 720.274 472.048 722.216 490.5 721Z" fill="#D9D9D9" stroke="black" stroke-width="1"/>
<path id="65" d="M524 695.875C529.267 688.518 533.222 680.904 539.5 667L532.08 640.5C523.634 640.95 516.407 641.328 500.5 642.141C500.193 647.402 499.738 652.884 499.111 659C498.16 668.286 496.815 679.035 495 692.696C505.352 693.36 514.251 694.367 524 695.875Z" fill="#D9D9D9" stroke="black" stroke-width="1"/>
<path id="66" d="M460.5 659C457.071 668.018 455.005 672.954 445 676.5L445.087 677.217C445.811 683.195 446.3 687.238 446.206 691.5C467.468 691.581 482.323 691.882 495 692.696C496.815 679.034 498.16 668.285 499.111 659L497.932 658.904C480.96 657.521 471.089 656.717 460.5 659Z" fill="#D9D9D9" stroke="black" stroke-width="1"/>
<path id="67" d="M528.999 629.5C529.387 627.344 531.428 624.973 537.076 619.5C510.995 587.045 500.253 574.422 495.855 573C497 585.485 498.072 596.524 499.766 612.5C500.143 616.064 500.552 619.874 500.999 624C501.012 630.184 500.857 636.013 500.499 642.141C516.406 641.328 523.633 640.95 532.079 640.5C529.835 636.691 529.263 634.234 528.999 629.5Z" fill="#D9D9D9" stroke="black" stroke-width="1"/>
<path id="68" d="M539.5 616.5C539.561 612.642 540.17 611.551 541.5 610L544 608.947C531.145 582.403 524.539 566.09 513 534.747C511.738 534.72 510.861 534.797 510.5 535C500.201 540.846 496.484 545.702 494.5 558C494.987 563.428 495.427 568.316 495.856 573C500.254 574.422 510.996 587.045 537.077 619.5L539.5 616.5Z" fill="#D9D9D9" stroke="black" stroke-width="1"/>
<path id="69" d="M544 608.947C545.123 608.033 546.424 607.422 551 606C552.455 606.623 554.659 607.878 556.332 608.947C562.284 595.898 566.521 586.341 575.5 565.763C565.508 564.203 555.839 562.672 548.5 561.5C548.999 554.513 549.314 541.181 547.013 540.503C547.011 540.549 547.007 540.549 547 540.5C538.262 538.114 519.888 534.895 513 534.747C524.539 566.089 531.145 582.402 544 608.947Z" fill="#D9D9D9" stroke="black" stroke-width="1"/>
<path id="70" d="M558.5 610.5C559.294 611.267 559.485 615.133 559 617.5C559.516 616.803 565.557 619.51 576.5 624.852L628.885 580C627.815 578.705 626.743 577.239 625.5 575.5C625.137 574.786 624.973 574.017 625.059 573C622.584 573 599.255 569.468 577.017 566L575.5 565.763C566.521 586.341 562.284 595.898 556.332 608.947C557.341 609.592 558.157 610.169 558.5 610.5Z" fill="#D9D9D9" stroke="black" stroke-width="1"/>
<path id="71" d="M538.5 634L548.5 657.5C552.948 661.105 558.661 665.723 564.595 670.5C570.616 663.186 575.279 657.543 579.485 652.5C584.933 645.969 589.617 640.443 595.5 633.593L593 633C586.652 629.85 581.136 627.115 576.5 624.852C565.557 619.51 559.517 616.803 559 617.5L556 623C543.18 623.645 540.827 626.953 538.5 634Z" fill="#D9D9D9" stroke="black" stroke-width="1"/>
<path id="72" d="M603.501 699.5L618.001 681.5C624.36 675.39 627.457 673.221 632.001 672.289C615.224 664.317 604.295 659.863 579.486 652.5C575.279 657.543 570.617 663.186 564.596 670.5C579.786 682.728 596.425 696 597.001 696L603.501 699.5Z" fill="#D9D9D9" stroke="black" stroke-width="1"/>
<path id="73" d="M636.999 669L651.999 647L620.499 639.525L595.499 633.593C589.616 640.442 584.932 645.968 579.484 652.5C604.293 659.862 615.222 664.317 631.999 672.289L636.999 669Z" fill="#D9D9D9" stroke="black" stroke-width="1"/>
<path id="74" d="M636.958 586.644L636.5 586.5C629.634 605.596 626.136 617.149 620.5 639.525L652 647L662.5 599.5C652.798 591.631 647.02 589.812 636.958 586.644Z" fill="#D9D9D9" stroke="black" stroke-width="1"/>
<path id="75" d="M593 633L595.5 633.593L620.5 639.525C626.136 617.149 629.634 605.596 636.5 586.5C633.105 584.461 631.001 582.564 628.885 580L576.5 624.852C581.136 627.115 586.652 629.85 593 633Z" fill="#D9D9D9" stroke="black" stroke-width="1"/>
<path id="76" d="M641 517C634.176 522.512 625.703 523.68 607.5 524.5C600.555 524.035 596.685 523.298 593 521.845C614.286 556.062 623.61 568.946 628.5 563.5L656 520C653.28 511.938 651.508 509.922 648.5 511L641 517Z" fill="#D9D9D9" stroke="black" stroke-width="1"/>
<path id="77" d="M625.059 573C625.221 571.106 626.254 568.353 628.5 563.5C623.609 568.946 614.286 556.062 593 521.845C591.686 521.328 590.397 520.719 589 520C583.849 516.979 579.266 514.311 575 511.854C573.379 522.327 574.252 536.081 577.016 566C599.254 569.468 622.583 573 625.059 573Z" fill="#D9D9D9" stroke="black" stroke-width="1"/>
<path id="78" d="M468 634.5C466.48 643.22 464.911 648.556 460.5 659C471.089 656.717 480.96 657.521 497.932 658.904L499.111 659C499.738 652.884 500.193 647.402 500.5 642.141C500.857 636.013 501.012 630.184 501 624C500.553 619.874 500.144 616.064 499.766 612.5L498.307 612.547C482.631 613.045 473.403 613.339 463.5 616C464.331 622.955 465.21 626.997 468 634.5Z" fill="#D9D9D9" stroke="black" stroke-width="1"/>
<path id="79" d="M470.5 590.5C467.159 599.431 465.552 604.834 463.5 616C473.403 613.339 482.631 613.045 498.307 612.546L499.766 612.5C498.073 596.524 497.001 585.484 495.856 573C495.427 568.315 494.987 563.428 494.5 558C482.756 557.136 476.62 558.459 465.876 561.5C466.966 566.847 468.369 575.491 470.5 590.5Z" fill="#D9D9D9" stroke="black" stroke-width="1"/>
<path id="80" d="M466.5 508.013C465.893 527.873 465.477 538.735 462.5 551L462.627 551.254C463.729 553.444 464.58 555.138 465.876 561.5C476.62 558.459 482.756 557.136 494.5 558C496.484 545.702 500.201 540.846 510.5 535C511.222 528.859 511.811 524.069 513 514.5C510.273 520.422 507.418 522.924 500.5 526C494.352 526.779 497.682 529.235 469.5 508.013C467.695 506.954 466.843 506.606 466.5 508.013Z" fill="#D9D9D9" stroke="black" stroke-width="1"/>
<path id="81" d="M524 491.5C519.317 492.911 516.938 498.678 513 514.5C511.811 524.069 511.222 528.858 510.5 535C510.861 534.796 511.738 534.72 513 534.747C519.888 534.895 538.262 538.114 547 540.5L547.013 540.503C547.06 539.431 545.864 512.978 545.5 495.388C542.367 493.69 539.067 491.914 535.5 490C531.887 489.374 529.242 489.873 524 491.5Z" fill="#D9D9D9" stroke="black" stroke-width="1"/>
<path id="82" d="M547.013 540.504C549.314 541.182 548.999 554.513 548.5 561.5C555.839 562.672 565.508 564.203 575.5 565.763L577.017 566C574.253 536.081 573.379 522.327 575 511.855C564.498 505.806 555.915 501.033 545.5 495.389C545.864 512.978 547.06 539.431 547.013 540.504Z" fill="#D9D9D9" stroke="black" stroke-width="1"/>
<path id="83" d="M547 670.5L526.5 706.5L525.924 707C530.9 710.67 538.119 716 544.876 721C546.575 719 561.666 697.89 569 687.585L547 670.5Z" fill="#D9D9D9" stroke="black" stroke-width="1"/>
<path id="84" d="M563 734.5L594 707L569 687.585C561.667 697.89 546.576 719 544.877 721C553.77 727.58 561.864 733.591 563 734.5Z" fill="#D9D9D9" stroke="black" stroke-width="1"/>
<path id="85" d="M552.66 749.5L563 734.5C561.864 733.591 553.769 727.58 544.877 721C538.119 716 530.901 710.67 525.924 707L507.5 723C531.002 738.143 540.127 743.334 552.66 749.5Z" fill="#D9D9D9" stroke="black" stroke-width="1"/>
<path id="86" d="M507.5 723L486.5 730.5L481.5 730.174C506.609 745.957 520.021 753.689 542.32 764.5L552.66 749.5C540.127 743.334 531.002 738.143 507.5 723Z" fill="#D9D9D9" stroke="black" stroke-width="1"/>
<path id="87" d="M481.501 730.174C480.255 736.616 479.091 742.368 477.967 747.5C499.33 759.755 510.929 767.126 530.688 781.377L542.321 764.5C520.022 753.689 506.609 745.957 481.501 730.174Z" fill="#D9D9D9" stroke="black" stroke-width="1"/>
<path id="88" d="M460.5 786.179C478.409 796.05 495.963 806.161 511.54 817L520.5 799.596L473.118 766.411C469.579 777.593 465.833 783.382 460.5 786.179Z" fill="#D9D9D9" stroke="black" stroke-width="1"/>
<path id="89" d="M520.499 799.596L527.499 786L530.686 781.377C510.928 767.126 499.328 759.755 477.965 747.5C476.305 755.08 474.733 761.307 473.117 766.411L520.499 799.596Z" fill="#D9D9D9" stroke="black" stroke-width="1"/>
<path id="90" d="M503.559 832.5L511.539 817C495.963 806.161 478.409 796.051 460.5 786.179C457.839 784.713 455.171 783.252 452.5 781.794C450.071 785.833 447.709 789.727 445.396 793.5C464.098 806.333 501.912 832.1 503.559 832.5Z" fill="#D9D9D9" stroke="black" stroke-width="1"/>
<path id="91" d="M489.215 851L501.5 836.5L503.559 832.5C501.912 832.1 464.097 806.333 445.396 793.5C443.296 796.927 441.236 800.255 439.203 803.5C437.391 806.395 435.6 809.224 433.822 812L489.215 851Z" fill="#D9D9D9" stroke="black" stroke-width="1"/>
<path id="92" d="M420.6 832C441.834 846.666 453.253 855.006 473.118 870L489.215 851L433.822 812C431.863 815.059 429.92 818.053 427.98 821C425.523 824.731 423.072 828.386 420.6 832Z" fill="#D9D9D9" stroke="black" stroke-width="1"/>
<path id="93" d="M412.205 844C415.053 840.02 417.839 836.036 420.601 832C401.119 819.183 389.278 812.256 367.809 800L363.001 814L361.254 819.5C381.517 828.35 392.643 833.754 411.847 844.5L412.205 844Z" fill="#D9D9D9" stroke="black" stroke-width="1"/>
<path id="94" d="M367.809 800C389.278 812.256 401.119 819.182 420.601 832C423.073 828.386 425.524 824.731 427.981 821C409.122 803.821 396.844 795.546 374.204 781.377L367.809 800Z" fill="#D9D9D9" stroke="black" stroke-width="1"/>
<path id="95" d="M379.999 764.5L374.203 781.377C396.843 795.546 409.121 803.821 427.98 821C429.92 818.053 431.863 815.059 433.822 812C435.6 809.224 437.39 806.395 439.203 803.5L380.902 762L379.999 764.5Z" fill="#D9D9D9" stroke="black" stroke-width="1"/>
<path id="96" d="M445.397 793.5C447.709 789.727 450.071 785.833 452.5 781.794C449.334 780.066 446.164 778.343 443 776.623C437.094 773.413 431.207 770.211 425.396 767C419.325 763.646 413.338 760.282 407.5 756.889C400.486 752.813 393.688 748.695 387.219 744.5L380.902 762L439.204 803.5C441.236 800.255 443.296 796.927 445.397 793.5Z" fill="#D9D9D9" stroke="black" stroke-width="1"/>
<path id="97" d="M421.999 712.5L400.755 707L387.219 744.5C393.688 748.695 400.486 752.813 407.499 756.889L427.499 715.5L421.999 712.5Z" fill="#D9D9D9" stroke="black" stroke-width="1"/>
<path id="98" d="M463.501 729L448.501 718.5L425.396 767C431.207 770.211 437.095 773.413 443.001 776.623C449.834 761.249 463.501 730.2 463.501 729Z" fill="#D9D9D9" stroke="black" stroke-width="1"/>
<path id="99" d="M443 776.623C446.164 778.343 449.334 780.066 452.5 781.794C455.171 783.252 457.839 784.713 460.5 786.179C465.833 783.382 469.579 777.593 473.118 766.411C474.733 761.307 476.306 755.08 477.966 747.5C479.09 742.368 480.255 736.616 481.5 730.174L463.5 729C463.5 730.2 449.833 761.249 443 776.623Z" fill="#D9D9D9" stroke="black" stroke-width="1"/>
<path id="100" d="M438 709L427.5 715.5L407.5 756.889C413.338 760.282 419.325 763.646 425.396 767L448.5 718.5L438 709Z" fill="#D9D9D9" stroke="black" stroke-width="1"/>
<path id="222" d="M584.5 727C581.5 729 559 751.5 554.5 759C554 760.5 558 763.5 560.5 767C571.022 787.241 576.743 797.451 585.5 806.5L586.331 808L610.5 783.5C619.883 772.193 627.736 763.288 635.674 755L584.5 727Z" fill="#D9D9D9" stroke="black" stroke-width="1"/>
<path id="102" d="M325.999 1011.5L344.499 1047C345.762 1049.99 347.499 1052.5 347.999 1053C348.359 1053.33 348.69 1053.63 349 1053.88L417 1010.5L368 930.5L342.5 940.5L322 1003.96L325.999 1011.5Z" fill="#D9D9D9" stroke="black" stroke-width="1"/>
<path id="103" d="M353.499 1056L392.999 1065.5L454.499 1079.5L467.5 1082.61L491.5 992.5C484.614 993.41 480.859 994.032 474.5 995.5L452.5 1007.5L443 995.5L417 1010.5L349 1053.88C350.759 1055.35 351.83 1055.66 353.499 1056Z" fill="#D9D9D9" stroke="black" stroke-width="1"/>
<path id="104" d="M467.5 1082.61L512.999 1093.5C515.783 1094.22 518.834 1094.99 522 1095.79L564 974L517.5 989L491.5 992.5L467.5 1082.61Z" fill="#D9D9D9" stroke="black" stroke-width="1"/>
<path id="105" d="M522 1095.79C538.739 1100.03 558.669 1104.94 558.999 1105C559.769 1105.15 561.671 1105.61 564 1106.19L603 989L588 978.5L564 974L522 1095.79Z" fill="#D9D9D9" stroke="black" stroke-width="1"/>
<path id="106" d="M578.5 1110C580.444 1110.81 582.253 1112.16 589 1119C595.52 1124.87 600.128 1128.87 605.379 1133L639 1016C636.005 1015.44 634.383 1014.95 631.5 1014C624.115 1009.76 620.114 1006.66 613 1001C608.524 996.705 606.445 993.999 603 989L564 1106.19C569.763 1107.63 578.146 1109.84 578.5 1110Z" fill="#D9D9D9" stroke="black" stroke-width="1"/>
<path id="107" d="M614 1139.5C622.311 1144.99 626.999 1147.85 635.5 1152C638.538 1153.02 641.096 1153.86 643.5 1154.56L676 1037.25L673.5 1034.5C667.92 1027.92 664.594 1024.33 657.5 1018.5C654.247 1016.95 648.96 1016.58 639 1016L605.379 1133C607.989 1135.05 610.758 1137.14 614 1139.5Z" fill="#D9D9D9" stroke="black" stroke-width="1"/>
<path id="108" d="M657 1157.5C667.696 1159.48 673.64 1160.76 684 1163.5C701.211 1168.13 710.741 1170.34 727.5 1173.5C738.864 1175.29 743.018 1176 744.5 1176.5L745.228 1176.83C755.159 1181.34 760.948 1183.97 769 1186.5L781.5 1190.5C782.532 1190.74 783.757 1191.1 784.999 1191.5L788 1165.5C788.041 1152.03 787.148 1144.47 786 1131C785.543 1127.62 783.656 1123.64 778 1113.5C773.434 1107.9 768.134 1103.49 759.5 1096C753.975 1091.06 752.563 1089.52 751 1089.5C746.102 1090.52 743.24 1091.17 738 1092.5C731.402 1094.61 727.55 1095.3 720.5 1096C718.355 1096.12 717.185 1094.63 715 1089.5C712.353 1080.05 711.619 1075.23 708.5 1065.5C705.446 1060.4 695.72 1048.7 693.5 1047C692.356 1046.12 683.167 1041.83 678.5 1040L676 1037.25L643.5 1154.56C647.861 1155.84 651.712 1156.7 657 1157.5Z" fill="#D9D9D9" stroke="black" stroke-width="1"/>
<path id="109" d="M316.5 803.5C318.534 831.784 320.2 847.463 321.5 876V881.5C328.519 881.211 330.97 880.848 334 880L349 832.5C332.713 816.581 328.018 813.321 316.5 803.5Z" fill="#D9D9D9" stroke="black" stroke-width="1"/>
<path id="110" d="M342 929.5L369 920.5L371.583 921C369.032 917.086 365.789 913.2 361.222 908.5C356.016 903.141 349.088 896.724 339.5 888L325.5 916.5L324.5 925L342 929.5Z" fill="#D9D9D9" stroke="black" stroke-width="1"/>
<path id="111" d="M368 930.5L417 1010.5L443 995.5C449.82 991.314 453.928 985.364 461.5 971C464.586 960.808 465.828 954.44 464.5 942.5L480 919C478.211 916.68 477.312 915.2 476 912C474.766 908.679 474.493 906.691 474.5 903L461.5 893.5L456.5 894L437 912L399.5 932.5L374.5 929L368 930.5Z" fill="#D9D9D9" stroke="black" stroke-width="1"/>
<path id="112" d="M570 963.5C573.51 946.255 576.197 936.489 581.5 919C579.246 919 560.364 912.002 538 903.384C516.707 895.178 492.258 885.503 476 879L461.5 893.5L474.5 903C478.898 899.897 482.383 899.001 485 900C488.435 903.107 489.761 905.704 491.5 913.5C491.689 916.834 488.011 922.881 472.5 945.5C474.922 963.926 469.313 974.898 459 989L461.5 992.5C466.344 990.339 469.237 989.29 474.5 987.5C497.25 984.536 507.145 983.454 517.5 983C537.841 974.762 549.43 970.482 570 963.5Z" fill="#D9D9D9" stroke="black" stroke-width="1"/>
<path id="113" d="M655 1008L672.5 952.5L623.5 934.462L581.5 919C576.197 936.489 573.51 946.255 570 963.5C582.484 966.938 588.677 969.204 598 974C609.574 984.318 615.334 990.271 623 999C629.437 1003.58 632.939 1005.63 639 1008C645.253 1009.14 648.731 1009.21 655 1008Z" fill="#D9D9D9" stroke="black" stroke-width="1"/>
<path id="114" d="M802.999 1082L810.142 999.5L807 999.057L799.5 998L699.495 962.171L672.5 952.5L655 1008L676 1025L702 1045.5C707.315 1049.69 710.572 1053.43 717 1063.5C720.433 1072.76 721.896 1077.87 723 1087L725.5 1088.5C733.169 1085.53 737.833 1084.5 746.5 1083.5C752.226 1083.53 755.614 1084.16 762 1087C772.532 1094.52 777.624 1098.96 784.5 1107.5L792 1119H800.183C801.382 1105.34 802.408 1092.21 802.999 1082Z" fill="#D9D9D9" stroke="black" stroke-width="1"/>
<path id="115" d="M339.5 888C349.088 896.724 356.016 903.141 361.222 908.5C370.858 897.096 379.32 886.848 387 877.223C375.593 872.842 366.348 870.749 346.01 867.5L339.5 888Z" fill="#D9D9D9" stroke="black" stroke-width="1"/>
<path id="116" d="M384.5 923.5L402.5 921.5L418.234 913.5L387.577 876.5C387.385 876.741 387.193 876.982 387 877.223C379.32 886.848 370.858 897.096 361.223 908.5C365.789 913.2 369.032 917.086 371.584 921L384.5 923.5Z" fill="#D9D9D9" stroke="black" stroke-width="1"/>
<path id="117" d="M387 877.223C387.192 876.982 387.385 876.741 387.576 876.5C392.662 870.115 397.405 864.001 401.923 858C399.23 855.427 383.98 851.532 353.473 844L346.01 867.5C366.347 870.749 375.593 872.842 387 877.223Z" fill="#D9D9D9" stroke="black" stroke-width="1"/>
<path id="118" d="M418.233 913.5L432 906.5L444.5 896.128C427.509 877.963 418.122 869.03 401.923 858C397.405 864.001 392.661 870.115 387.576 876.5L418.233 913.5Z" fill="#D9D9D9" stroke="black" stroke-width="1"/>
<path id="119" d="M353.473 844C383.981 851.532 399.23 855.427 401.924 858C405.344 853.458 408.634 848.98 411.846 844.5C392.642 833.754 381.516 828.35 361.253 819.5L353.473 844Z" fill="#D9D9D9" stroke="black" stroke-width="1"/>
<path id="120" d="M444.5 896.128L455.5 887L460.31 882.5C440.252 865.066 429.663 856.531 412.204 844L411.846 844.5C408.635 848.98 405.344 853.458 401.924 858C418.122 869.03 427.509 877.963 444.5 896.128Z" fill="#D9D9D9" stroke="black" stroke-width="1"/>
<path id="121" d="M865.499 11.4995C857.375 13.224 851.925 14.5149 845.999 17.4995C839.768 21.2713 833.071 27.3383 824.499 33.9995C819.861 38.5418 816.07 42.2447 812.729 45.4995C822.311 55.9261 827.444 62.0428 835.59 74.2069C838.991 70.2226 846.61 60.8688 850 55.9995C851.006 54.8545 851.67 54.6034 853 54.4995C857.29 35.2149 860.101 26.1409 865.499 11.4995Z" fill="#D9D9D9" stroke="black" stroke-width="1"/>
<path id="122" d="M895.999 61.4997C896.142 51.7853 898.147 46.0629 893.999 36.4997C889.806 30.2697 887.12 27.0294 881.999 21.4997C873.169 14.9125 867.003 11.3044 865.499 11.4997C860.101 26.1411 857.29 35.2151 853 54.4998C854.255 54.7263 854.807 55.0484 855.5 55.9998C856.203 57.1875 856.389 57.8519 856.5 58.9998C856.509 59.3958 856.513 59.7431 856.512 60.1946C869.543 61.4374 892.648 64.6829 895.654 64.9998L895.999 61.4997Z" fill="#D9D9D9" stroke="black" stroke-width="1"/>
<path id="123" d="M856.5 61.4999C856.352 62.3767 855.769 63.067 853 64.9999C847.984 70.2378 845.358 73.3162 841.5 79.4999C839.404 82.3871 838.319 83.9647 837 86.4999C836.495 87.5558 836.028 88.5469 835.59 89.4999C855.52 92.7902 892.141 97.3129 892.546 96.5223L892.548 96.4999L895.654 64.9999C892.648 64.6831 869.543 61.4376 856.512 60.1948C856.511 60.544 856.507 60.9554 856.5 61.4999Z" fill="#D9D9D9" stroke="black" stroke-width="1"/>
<path id="124" d="M829.5 105.5C828.392 109.365 827.66 112.137 826.983 115.5L889.739 125L892.547 96.5223C892.141 97.313 855.52 92.7903 835.59 89.5C833.262 94.5611 831.727 98.552 829.5 105.5Z" fill="#D9D9D9" stroke="black" stroke-width="1"/>
<path id="125" d="M826 121L824 139.5C823.849 140.032 823.701 140.53 823.55 141C851.115 144.826 865.264 146.397 887.294 148L888.999 132.5L889.739 125L826.983 115.5C826.655 117.131 826.339 118.9 826 121Z" fill="#D9D9D9" stroke="black" stroke-width="1"/>
<path id="126" d="M819 149L809.509 159.395L846.669 169.448L883.829 179.5L887.294 148C865.264 146.397 851.115 144.826 823.55 141C822.519 144.212 821.399 146.137 819 149Z" fill="#D9D9D9" stroke="black" stroke-width="1"/>
<path id="127" d="M808.5 160.5L779 187.5C778.184 188.051 776.585 191.9 777 193.5C777.083 193.594 777.187 194.124 777.306 195C804.736 192.715 819.309 191.894 842.293 192C843.188 178.903 843.962 173.056 846.669 169.447L809.509 159.395L808.5 160.5Z" fill="#D9D9D9" stroke="black" stroke-width="1"/>
<path id="128" d="M780 231H789.5C811.039 229.516 823.096 228.689 835 229.578C838.76 216.277 840.171 207.769 842.292 192C819.308 191.894 804.736 192.715 777.306 195C778.065 200.592 779.444 220.299 780 231Z" fill="#D9D9D9" stroke="black" stroke-width="1"/>
<path id="129" d="M837.5 229.5C838.881 228.93 839.497 228.729 840.5 228.5C841.311 228.506 841.968 228.535 842.5 228.61C854.167 227.906 877.732 226.5 878.659 226.5L883.829 179.5L846.669 169.447C843.961 173.056 843.188 178.903 842.292 192C840.171 207.769 838.76 216.277 835 229.578L837.5 229.5Z" fill="#D9D9D9" stroke="black" stroke-width="1"/>
<path id="130" d="M844.5 230L845 232.5C845.269 235.026 843.843 261.668 842.5 290H872.157L877.999 232.5L878.659 226.5C877.732 226.5 854.167 227.907 842.5 228.61C843.665 228.774 844.229 229.156 844.5 230Z" fill="#D9D9D9" stroke="black" stroke-width="1"/>
<path id="131" d="M835 288C834 280 837.269 259.334 836.5 249L836 233C836.332 231.376 836.11 229.866 837.5 229.5L835 229.578C823.096 228.689 811.039 229.516 789.5 231C793.115 238.928 795.068 245.81 798.5 260.5L806 288.5L805.21 290.579C817.869 290.875 824.286 290.676 835.23 290C835.16 289.335 835.084 288.671 835 288Z" fill="#D9D9D9" stroke="black" stroke-width="1"/>
<path id="132" d="M842.5 290V299C843.512 317.082 842.26 327.669 836 347.5C835.404 348.184 834.818 348.85 834.239 349.5H866.172L868.5 326L872.157 290H842.5Z" fill="#D9D9D9" stroke="black" stroke-width="1"/>
<path id="133" d="M825 347.5C828.834 342.587 830.435 339.142 832 331.5C834.107 325.314 834.498 324.918 836 319C835.949 304.459 835.991 297.257 835.23 290C824.286 290.677 817.869 290.875 805.21 290.579L796.5 313.5L823.5 348.906L825 347.5Z" fill="#D9D9D9" stroke="black" stroke-width="1"/>
<path id="134" d="M834.239 349.5C823.614 361.441 815.794 367.896 804 377C802.79 378.308 802.079 379.231 801.5 380.605L862.407 387.5L866.171 349.5H834.239Z" fill="#D9D9D9" stroke="black" stroke-width="1"/>
<path id="135" d="M794.5 366.5C797.943 369.629 799.577 370.833 801 370L823.5 348.906L796.5 313.5L776.158 336.5C781.93 347.278 787.317 355.05 794.5 366.5Z" fill="#D9D9D9" stroke="black" stroke-width="1"/>
<path id="136" d="M759.5 299C766.187 316.265 771.308 327.444 776.158 336.5L796.5 313.5L805.21 290.579L806 288.5L756.315 290L759.5 299Z" fill="#D9D9D9" stroke="black" stroke-width="1"/>
<path id="137" d="M740 262.5L748 266.5L756.315 290L806 288.5L798.5 260.5C775.657 263.108 762.856 263.375 740 262.5Z" fill="#D9D9D9" stroke="black" stroke-width="1"/>
<path id="138" d="M780 231C778.886 238.382 778.748 240.503 777.5 240.5C772.233 240.753 766.448 240.257 754 238.5C744.411 235.024 739.111 232.241 729.5 226C725.191 224.95 721.557 224.921 717.5 226C714.186 230.79 713.991 236.299 715.5 244C717.696 248.371 719.255 250.603 723 254L740 262.5C762.856 263.375 775.657 263.108 798.5 260.5C795.067 245.81 793.115 238.928 789.5 231H780Z" fill="#D9D9D9" stroke="black" stroke-width="1"/>
<path id="139" d="M737.499 111.5C736.442 111.855 724.999 112.5 722.999 111.5C721.61 110.805 718.773 108.663 716.5 107.252C715.759 126.542 719.865 180.181 722.999 183.5L765 184.5C765.56 184.545 766.016 184.703 766.443 185L744.321 108C741.238 109.74 738.544 111.149 737.499 111.5Z" fill="#D9D9D9" stroke="black" stroke-width="1"/>
<path id="140" d="M768.5 187.5C777.037 178.511 783.621 171.811 790.362 165.5C779.169 141.909 772.199 125.344 760 96.9658C758.39 98.4567 756.732 99.9621 754.999 101.5C752.366 103.292 748.058 105.89 744.321 108L766.443 185C767.107 185.461 767.7 186.26 768.5 187.5Z" fill="#D9D9D9" stroke="black" stroke-width="1"/>
<path id="141" d="M809.282 149C796.292 125.733 789.025 110.522 776.802 84.94L775.397 82C770.13 87.2598 765.326 92.0339 760 96.9661C772.199 125.344 779.169 141.909 790.362 165.5C796.117 160.112 801.986 155.006 809.282 149Z" fill="#D9D9D9" stroke="black" stroke-width="1"/>
<path id="142" d="M810.5 148C813.279 144.714 815.15 138.913 819 123C819.307 118.345 818.837 114.95 818.813 113C808.387 100.315 801.098 88.5774 788.528 69L787.499 70C783.429 73.9775 779.826 77.5763 776.437 80.9618L775.397 82L776.802 84.94C789.025 110.522 796.293 125.733 809.282 149C809.684 148.669 810.09 148.336 810.5 148Z" fill="#D9D9D9" stroke="black" stroke-width="1"/>
<path id="143" d="M819 111.5C820.945 109.222 821.874 107.92 823 105.5C826.666 96 833.423 76.5546 834 76C834.222 75.7858 834.789 75.1454 835.59 74.2074C827.443 62.0433 822.311 55.9266 812.729 45.5C803.944 54.0608 798.279 59.5214 788.527 69C801.098 88.5774 808.387 100.315 818.812 113C818.804 112.323 818.849 111.82 819 111.5Z" fill="#D9D9D9" stroke="black" stroke-width="1"/>
<path id="144" d="M801 382C805.566 400.675 806.953 411.361 809 430.5C795.772 443.898 787.436 450.542 769.5 459.5C787.77 462.987 801.513 465.503 813 467.426C828.91 470.089 840.494 471.613 853.784 473L857.999 431.999L862.407 387.5L801.5 380.604C801.325 381.02 801.161 381.478 801 382Z" fill="#D9D9D9" stroke="black" stroke-width="1"/>
<path id="145" d="M795 516C795.77 515.1 796.398 514.791 798 514.5C800.2 514.807 801.266 515.01 802.5 515.5L850.289 507L853.784 473C840.494 471.613 828.91 470.089 813 467.426L798 507.904L795 516Z" fill="#D9D9D9" stroke="black" stroke-width="1"/>
<path id="146" d="M813 467.426C801.512 465.504 787.769 462.987 769.5 459.5C758.125 463.431 751.256 466.687 740.994 473L798 507.904L813 467.426Z" fill="#D9D9D9" stroke="black" stroke-width="1"/>
<path id="147" d="M737 475.5L717.5 490C729.153 498.451 742.845 505.921 764 518C784.423 528.678 789.395 530.707 792 530.5C794.07 529.672 794.001 529.287 794.5 526.5C794.91 523.162 794.811 519.92 795 516L798 507.904L740.995 473C739.72 473.784 738.394 474.615 737 475.5Z" fill="#D9D9D9" stroke="black" stroke-width="1"/>
<path id="148" d="M802.5 515.5C803.443 516.359 803.712 517.197 804 519C803.684 522.646 803.314 524.466 802.5 527.5L798.833 534.5L845.296 558L846.999 539L850.289 507L802.5 515.5Z" fill="#D9D9D9" stroke="black" stroke-width="1"/>
<path id="149" d="M798.833 534.5L797 538C795.092 540.225 793.88 541.131 792.622 541.237C799.233 556.087 801.894 565.2 805 582.616C808.942 584.439 813.705 586.702 819.5 589.5C830.634 591.124 836.15 591.627 842.384 590.5L845.297 558L798.833 534.5Z" fill="#D9D9D9" stroke="black" stroke-width="1"/>
<path id="150" d="M762.5 579.5L772.5 598L784 614.5L840.591 610.5L842.384 590.5C836.15 591.626 830.634 591.123 819.5 589.5C813.705 586.702 808.941 584.439 805 582.616C792.321 576.75 788.148 575.435 785.5 575.5C777.209 579.14 772.284 580.307 762.5 579.5Z" fill="#D9D9D9" stroke="black" stroke-width="1"/>
<path id="151" d="M784 614.5L780.5 627.5C779.636 628.828 779.096 629.198 778 629.5L780.5 630.478L836.785 652.5L837.499 645L840.591 610.5L784 614.5Z" fill="#D9D9D9" stroke="black" stroke-width="1"/>
<path id="152" d="M771.5 627L772 624.5C774.143 619.644 774.456 617.411 774 614C766.464 601.016 761.4 594.842 753 583L726 573.298C719.208 588.399 716.443 595.659 714 605.799L725 609.855L771.5 627Z" fill="#D9D9D9" stroke="black" stroke-width="1"/>
<path id="153" d="M683 559.5L672.508 590.5L714 605.799C716.443 595.659 719.208 588.399 726 573.298L683.424 558C683.285 558.49 683.144 558.99 683 559.5Z" fill="#D9D9D9" stroke="black" stroke-width="1"/>
<path id="154" d="M753 583C754.614 564.823 751.295 558.522 743 549.5C720.982 543.737 709.734 540.979 690.63 536.5C688.075 542.339 686.231 548.104 683.424 558L726 573.298L753 583Z" fill="#D9D9D9" stroke="black" stroke-width="1"/>
<path id="155" d="M743 549.5C745.1 544.465 746.355 539.891 748 529L753 525.5C753.787 524.256 753.896 523.462 753 522C726.307 509.462 713.417 503.619 708.5 503.5C700.596 509.226 697.014 516.014 692 533.5C691.517 534.516 691.063 535.509 690.63 536.5C709.734 540.979 720.982 543.737 743 549.5Z" fill="#D9D9D9" stroke="black" stroke-width="1"/>
<path id="156" d="M791 541C781.556 535.186 776.553 531.798 767 528C762.827 528.145 758.573 529.811 756 533C753.103 538.171 752.146 541.122 752 546.5C755.334 555.387 757.386 558.514 761 564.5L762.5 579.5C772.284 580.307 777.209 579.14 785.5 575.5C788.148 575.435 792.321 576.751 805 582.616C801.894 565.2 799.233 556.087 792.622 541.237C792.106 541.281 791.582 541.19 791 541Z" fill="#D9D9D9" stroke="black" stroke-width="1"/>
<path id="157" d="M765 184.5L722.999 183.5L719 216L733 219L771.5 232.5L768.5 187.5C767.7 186.26 767.107 185.461 766.444 185C766.016 184.703 765.56 184.545 765 184.5Z" fill="#D9D9D9" stroke="black" stroke-width="1"/>
<path id="158" d="M577 267L546.5 277.5C543.233 280.508 540.566 283.479 537.961 287.5C559.609 303.313 571.33 312.035 585 325.013C590.532 319.626 594.532 315.77 596 314.555C595.84 313.418 595.673 312.234 595.5 311C583.594 278.154 578.981 266.568 577 267Z" fill="#D9D9D9" stroke="black" stroke-width="1"/>
<path id="159" d="M601.365 342.5C601.078 342.171 600.788 341.838 600.495 341.5C599.45 337.996 598.437 331.786 596.064 315C596.043 314.852 596.022 314.704 596.001 314.555C594.533 315.77 590.533 319.626 585 325.013C577.609 332.21 567.482 342.138 557 352.151C549.019 359.774 540.832 367.447 533.49 374C536.007 380.608 537.49 386.196 538.5 397C566.005 372.052 579.657 360.229 601.365 342.5Z" fill="#D9D9D9" stroke="black" stroke-width="1"/>
<path id="160" d="M538.5 397C537.684 404.333 536.642 413.048 535.533 422C539.008 422.07 542.329 422.137 545.5 422.202L617.289 358.5C611.709 354.007 607.113 349.085 601.365 342.5C579.657 360.229 566.004 372.052 538.5 397Z" fill="#D9D9D9" stroke="black" stroke-width="1"/>
<path id="161" d="M571.5 422.768C597.722 399.068 611.558 386.925 633.5 369C626.765 365.36 621.717 362.065 617.289 358.5L545.5 422.202C552.782 422.351 559.269 422.488 565 422.617C567.286 422.668 569.452 422.718 571.5 422.768Z" fill="#D9D9D9" stroke="black" stroke-width="1"/>
<path id="162" d="M650 354C637.273 366.196 634.099 369.427 633.5 369C611.558 386.925 597.722 399.068 571.5 422.768C578.51 422.936 584.142 423.092 588.5 423.246C592.97 423.404 596.099 423.561 598 423.727C623.241 399.13 636.723 386.619 660.377 365C656.63 359.626 653.608 356.6 650 354Z" fill="#D9D9D9" stroke="black" stroke-width="1"/>
<path id="163" d="M672.462 385.5C672.148 384.843 671.827 384.176 671.5 383.5C666.87 375.153 663.389 369.319 660.377 365C636.723 386.619 623.241 399.13 598 423.727C599.004 423.815 599.665 423.905 600 424C601.929 424.804 603.928 425.744 606 426.812C609.121 428.423 612.406 430.325 615.865 432.5C640.732 411.026 653.175 400.678 672.462 385.5Z" fill="#D9D9D9" stroke="black" stroke-width="1"/>
<path id="164" d="M636.5 446.924C653.454 429.191 663.503 420.983 681.908 408C679.385 400.703 676.442 393.826 672.462 385.5C653.175 400.678 640.732 411.026 615.865 432.5C620.409 435.357 625.251 438.682 630.413 442.427C630.448 442.436 630.481 442.46 630.513 442.5C632.463 443.916 634.458 445.391 636.5 446.924Z" fill="#D9D9D9" stroke="black" stroke-width="1"/>
<path id="165" d="M688.038 432.29L688.489 431.5C686.32 422.223 684.302 414.922 681.908 408C663.503 420.983 653.454 429.191 636.5 446.924C646.077 454.113 656.679 462.561 668.42 472C672.997 458.664 678.488 449.036 688.038 432.29Z" fill="#D9D9D9" stroke="black" stroke-width="1"/>
<path id="166" d="M721 477.752C706.779 465.36 694.687 452.582 688.952 433.5C688.797 432.823 688.642 432.157 688.489 431.5L688.038 432.29C678.488 449.036 672.997 458.664 668.42 472C670.856 473.958 673.341 475.96 675.876 478.001L675.877 478.002C683.52 484.157 691.618 490.678 700.198 497.5C707.745 488.265 715.974 481.739 720.575 478.09L721 477.752Z" fill="#D9D9D9" stroke="black" stroke-width="1"/>
<path id="167" d="M656 500.5C661.685 508.78 664.357 513.12 667.5 520C673.133 527.199 676.382 530.767 682.686 534.5C683.287 532.817 683.892 531.147 684.5 529.5C686.967 516.654 693.298 505.944 700.198 497.5C691.618 490.678 683.52 484.157 675.877 478.002L675.876 478.001C673.341 475.96 670.856 473.958 668.42 472C661.73 477.728 656.779 483.894 646.5 499L656 500.5Z" fill="#D9D9D9" stroke="black" stroke-width="1"/>
<path id="168" d="M636.5 575.5C650.741 582.579 663.805 589.461 664.5 588.748C665.766 587.742 673.73 559.596 682.686 534.5C676.382 530.767 673.133 527.199 667.5 520L635.5 567.5C634.594 570.804 634.48 572.601 636.5 575.5Z" fill="#D9D9D9" stroke="black" stroke-width="1"/>
<path id="169" d="M631.5 513L646.5 499C656.779 483.893 661.73 477.728 668.42 472C656.679 462.561 646.077 454.113 636.5 446.924C634.458 445.391 632.463 443.915 630.513 442.5L630.413 442.427C628.54 441.957 623.369 486.911 622 513.413L631.5 513Z" fill="#D9D9D9" stroke="black" stroke-width="1"/>
<path id="170" d="M630.413 442.427C625.251 438.682 620.409 435.357 615.865 432.5C612.406 430.325 609.121 428.423 606 426.812C603.389 463.119 601.578 482.682 597 514.5L622 513.413C623.369 486.912 628.54 441.957 630.413 442.427Z" fill="#D9D9D9" stroke="black" stroke-width="1"/>
<path id="171" d="M600 424C599.665 423.905 599.004 423.815 598 423.727C596.099 423.561 592.97 423.404 588.5 423.246C584.861 452.218 582.936 470.147 580 505.507L597 514.5C601.578 482.682 603.389 463.118 606 426.812C603.928 425.744 601.929 424.804 600 424Z" fill="#D9D9D9" stroke="black" stroke-width="1"/>
<path id="172" d="M588.499 423.246C584.141 423.091 578.509 422.935 571.499 422.767C569.451 422.718 567.285 422.668 564.999 422.617L557.301 493.5L579.999 505.507C582.935 470.147 584.86 452.219 588.499 423.246Z" fill="#D9D9D9" stroke="black" stroke-width="1"/>
<path id="173" d="M545.5 422.202C542.33 422.137 539.009 422.07 535.534 422C532.243 448.557 528.357 477.197 528.021 478.011L557.301 493.5L565 422.617C559.269 422.488 552.782 422.351 545.5 422.202Z" fill="#D9D9D9" stroke="black" stroke-width="1"/>
<path id="174" d="M531.499 369C524.128 362.268 519.205 356.855 515.172 351L493.6 402.5L515.823 483.5C518.495 481.612 522.362 479.94 527.999 478L528.021 478.011C528.357 477.197 532.242 448.557 535.533 422C536.642 413.048 537.684 404.333 538.499 397C537.489 386.196 536.006 380.608 533.489 374C532.887 372.42 532.227 370.782 531.499 369Z" fill="#D9D9D9" stroke="black" stroke-width="1"/>
<path id="175" d="M510.5 491.5C511.292 488.076 512.785 485.648 515.824 483.5L493.6 402.5L482.5 429C487.161 455.824 490.394 471.22 498.5 500C499.613 501.563 501.497 502.269 508.822 503C509.26 500.255 509.8 496.552 510.5 491.5Z" fill="#D9D9D9" stroke="black" stroke-width="1"/>
<path id="176" d="M496 517C499.041 517.576 501.708 515.66 507 511C507.512 510.03 507.977 508.305 508.822 503C501.497 502.269 499.613 501.563 498.5 500C490.394 471.22 487.161 455.824 482.5 429C476.324 433.203 470.822 436.608 465 439.763C464.503 440.032 464.003 440.3 463.5 440.566C472.469 465.135 475.138 478.496 477 501.855C477.422 502.137 477.762 502.357 478 502.5C480 503.7 490.833 512.667 496 517Z" fill="#D9D9D9" stroke="black" stroke-width="1"/>
<path id="177" d="M455.265 493.5C456.014 491.608 457.989 491.247 462.499 491.5C466.316 494.289 473.883 499.768 476.999 501.855C475.138 478.496 472.468 465.135 463.499 440.566C459.463 442.704 455.236 444.746 450.499 446.868C445.225 449.231 439.317 451.694 432.334 454.5C440.889 468.511 455.068 492.012 455.265 493.5Z" fill="#D9D9D9" stroke="black" stroke-width="1"/>
<path id="178" d="M435.499 671C446.027 666.366 447.039 665.522 447.499 664.5L452.999 651C440.263 648.075 432.772 646.151 418.617 642C418.257 649.289 417.625 655.381 416.999 662C408.59 683.087 405.365 695.97 405.999 697C413.627 701.186 415.911 703.097 420.499 703.5C431.709 702.538 436.999 701.953 436.999 700.5C437.087 694.735 436.084 689.802 433.999 680.5C433.698 674.182 434.034 672.196 435.499 671Z" fill="#D9D9D9" stroke="black" stroke-width="1"/>
<path id="179" d="M445.5 573C430.127 593.224 423.74 602.315 418.5 612.5C419.075 625.09 419.001 634.226 418.617 642C432.773 646.152 440.263 648.075 453 651L458.5 637.5C459.019 633.886 458.044 628.403 456.589 620.211C456.248 618.293 455.881 616.226 455.5 614C455.401 612.046 457.251 606.124 462.5 590.5C462.279 589.196 461.971 587.312 461.35 583.5C456.225 580.914 452.869 578.615 445.5 573Z" fill="#D9D9D9" stroke="black" stroke-width="1"/>
<path id="180" d="M390.5 532C429.54 559.232 444.291 569.936 445.5 573C452.869 578.615 456.225 580.914 461.35 583.5L460.891 580.677C460.322 577.181 459.555 572.47 458.5 566L451.5 551C451.107 548.946 453.639 543.072 458.5 532C449.38 531.176 396.474 530.439 390.5 532Z" fill="#D9D9D9" stroke="black" stroke-width="1"/>
<path id="181" d="M390.499 532C396.474 530.439 449.38 531.176 458.499 532C459.404 526.424 458.326 518.221 456.869 508.013C447.975 507.541 439.712 507.174 430.499 506.842C417.905 506.389 403.538 506.002 383.361 505.5C385.76 515.881 388.325 525.575 390.499 532Z" fill="#D9D9D9" stroke="black" stroke-width="1"/>
<path id="182" d="M376.244 468.5C377.642 478.571 380.373 492.568 383.362 505.5C403.538 506.002 417.906 506.389 430.5 506.842C429.377 500.771 409.836 464.068 401.35 451.5C394.858 456.802 387.962 461.418 376.244 468.5Z" fill="#D9D9D9" stroke="black" stroke-width="1"/>
<path id="183" d="M456.871 508.013C456.274 503.831 455.614 499.312 455.001 494.5C455.063 494.127 455.15 493.795 455.267 493.5C455.069 492.012 440.89 468.511 432.335 454.5C431.689 453.441 431.075 452.437 430.501 451.5C422.018 441.738 417.196 439.578 408.501 445.279C406.029 447.545 403.717 449.568 401.352 451.5C409.837 464.068 429.378 500.771 430.501 506.842C439.713 507.174 447.977 507.541 456.871 508.013Z" fill="#D9D9D9" stroke="black" stroke-width="1"/>
<path id="184" d="M398 423C382.561 446.227 376.389 456.278 375.5 462.188C375.668 464.039 375.92 466.164 376.244 468.5C387.963 461.417 394.859 456.801 401.351 451.5C403.716 449.568 406.028 447.545 408.5 445.279C417.195 439.578 422.017 441.738 430.5 451.5C427.603 429.742 422.768 415.097 415.5 390.006C414.855 390.491 414.189 390.989 413.5 391.5C404.712 403.031 401.452 409.945 398 423Z" fill="#D9D9D9" stroke="black" stroke-width="1"/>
<path id="185" d="M437.5 369C431.15 377.004 426.378 381.813 415.5 390.006C422.768 415.097 427.603 429.742 430.5 451.5C431.074 452.437 431.688 453.441 432.335 454.5C439.317 451.694 445.225 449.231 450.5 446.868C444.865 405.127 441.933 387.155 437.5 369Z" fill="#D9D9D9" stroke="black" stroke-width="1"/>
<path id="186" d="M444 358.5L437.5 369C441.933 387.154 444.865 405.127 450.5 446.867C455.237 444.745 459.463 442.704 463.5 440.566C464.003 440.3 464.503 440.032 465 439.762L461.75 396.237L458.5 352.711C449.582 355.48 445.01 357.612 444 358.5Z" fill="#D9D9D9" stroke="black" stroke-width="1"/>
<path id="187" d="M482.5 429C479.703 389.687 478.538 370.471 478 347.5C470.008 349.368 463.556 351.142 458.5 352.712L461.75 396.237L465 439.763C470.822 436.608 476.324 433.203 482.5 429Z" fill="#D9D9D9" stroke="black" stroke-width="1"/>
<path id="188" d="M505.5 333.25C489.418 340.935 484.649 343.56 478 347.5C478.538 370.471 479.703 389.687 482.5 429L493.6 402.5L515.173 351C511.613 345.832 508.746 340.319 505.5 333.25Z" fill="#D9D9D9" stroke="black" stroke-width="1"/>
<path id="189" d="M526.5 312C512.435 327.282 508.358 331.315 505.5 333.25C508.746 340.319 511.613 345.832 515.173 351C519.206 356.855 524.129 362.268 531.5 369C532.227 370.782 532.888 372.42 533.49 374C540.832 367.447 549.019 359.774 557 352.151C542.448 334.679 533.913 324.628 526.5 312Z" fill="#D9D9D9" stroke="black" stroke-width="1"/>
<path id="190" d="M526.5 312C533.913 324.627 542.448 334.679 557 352.15C567.482 342.138 577.609 332.21 585 325.013C571.331 312.035 559.61 303.313 537.961 287.5C534.464 292.898 531.078 300.189 526.5 312Z" fill="#D9D9D9" stroke="black" stroke-width="1"/>
<path id="191" d="M701.999 109.5C695.132 114.171 689.287 119.467 683.999 127L671.499 144.5C665.669 155.672 662.671 163.627 658.468 174.5C679.7 171.721 691.394 171.239 711.854 172C711.742 171.504 711.624 171.004 711.5 170.5C710.877 159.6 709.861 154.078 706 145.5C709.397 124.783 709.296 117.14 707.26 107.252C705.405 107.888 703.514 108.687 701.999 109.5Z" fill="#D9D9D9" stroke="black" stroke-width="1"/>
<path id="192" d="M657.5 177L657.029 178.484C653.62 189.247 651.807 194.97 650 199.711C672.467 202.439 685.671 204.624 710.5 210C713.931 189.619 713.973 181.373 711.854 172C691.395 171.239 679.701 171.721 658.468 174.5C658.153 175.316 657.83 176.149 657.5 177Z" fill="#D9D9D9" stroke="black" stroke-width="1"/>
<path id="193" d="M649.5 201C646.508 207.988 643.874 210.74 641 215C644.941 222.034 648.324 228.48 651.696 235.5C677.162 234.068 689.382 233.591 706.5 233.5C708.757 223.786 709.529 218.727 710.5 210C685.671 204.624 672.467 202.439 650 199.711C649.834 200.148 649.668 200.577 649.5 201Z" fill="#D9D9D9" stroke="black" stroke-width="1"/>
<path id="194" d="M708.5 252.5C706.808 242.932 705.784 236.979 706.5 233.5C689.381 233.591 677.162 234.068 651.695 235.5C657.202 246.964 662.678 259.956 670.5 279.531C682.001 271.195 694.108 262.594 708.489 252.507C708.445 252.472 708.449 252.47 708.5 252.5Z" fill="#D9D9D9" stroke="black" stroke-width="1"/>
<path id="195" d="M683.076 302C705.678 289.091 717.875 282.62 739.052 272C718.587 259.435 709.093 252.98 708.49 252.507C694.108 262.594 682.001 271.195 670.5 279.531C673.61 285.39 676.536 290.728 679.565 296C680.715 298.001 681.881 299.993 683.076 302Z" fill="#D9D9D9" stroke="black" stroke-width="1"/>
<path id="196" d="M753 305.5C746.949 286.519 743.71 276.517 741.5 273.5C740.667 272.991 739.851 272.491 739.052 272C717.874 282.621 705.678 289.091 683.076 302C685.964 306.846 689.031 311.779 692.5 317.149C710.461 313.067 750.724 306.129 753 305.5Z" fill="#D9D9D9" stroke="black" stroke-width="1"/>
<path id="197" d="M761.5 327.5L753 305.5C750.725 306.129 710.462 313.067 692.5 317.149C698.018 325.693 704.553 335.341 713 347.5L761.5 327.5Z" fill="#D9D9D9" stroke="black" stroke-width="1"/>
<path id="198" d="M713 347.5C719.312 357.359 725.001 366.059 730.376 374L778.343 356.5C775.235 349.512 771.5 342.643 761.5 327.5L713 347.5Z" fill="#D9D9D9" stroke="black" stroke-width="1"/>
<path id="199" d="M794 387.5C791.876 377.309 787.662 370.518 779 358C778.783 357.497 778.564 356.998 778.343 356.5L730.376 374C736.329 382.796 741.897 390.661 747.5 398.14C752.344 395.834 763.359 393.386 794 387.5Z" fill="#D9D9D9" stroke="black" stroke-width="1"/>
<path id="200" d="M788 441C794.247 435.76 797.522 432.719 801.5 426.5C802.08 423.616 799.481 411.74 794 387.5C763.359 393.386 752.343 395.834 747.5 398.14C758.733 413.137 770.105 426.585 785 442.88C785.971 442.277 786.966 441.652 788 441Z" fill="#D9D9D9" stroke="black" stroke-width="1"/>
<path id="201" d="M753.5 458.5C768.856 452.325 775.793 448.598 785 442.88C770.105 426.584 758.733 413.136 747.5 398.14C739.855 403.395 733.147 408.273 725 414.549C733.279 423.968 739.954 433.467 753.5 458.5Z" fill="#D9D9D9" stroke="black" stroke-width="1"/>
<path id="202" d="M702.5 444C712.544 457.522 717.823 463.548 727 473C738.531 465.388 744.232 462.303 753.5 458.5C739.954 433.466 733.279 423.968 725 414.548C717.848 420.057 709.587 426.641 698.608 435.5C699.773 438.367 701.04 441.137 702.5 444Z" fill="#D9D9D9" stroke="black" stroke-width="1"/>
<path id="203" d="M689.5 406C693.014 419.127 695.432 427.676 698.609 435.5C709.588 426.641 717.849 420.057 725 414.549C733.148 408.274 739.855 403.395 747.5 398.14C741.898 390.661 736.33 382.796 730.376 374L688.952 404.5C689.134 404.995 689.317 405.495 689.5 406Z" fill="#D9D9D9" stroke="black" stroke-width="1"/>
<path id="204" d="M730.376 374C725.001 366.059 719.312 357.359 713 347.5L676.009 374C680.208 382.071 684.241 391.662 688.952 404.5L730.376 374Z" fill="#D9D9D9" stroke="black" stroke-width="1"/>
<path id="205" d="M657 346.5C664.841 355.623 670.564 363.534 676.008 374L713 347.5C704.553 335.341 698.018 325.692 692.5 317.149C679.397 326.1 671.047 332.369 654.97 345C655.597 345.392 656.261 345.894 657 346.5Z" fill="#D9D9D9" stroke="black" stroke-width="1"/>
<path id="206" d="M624.5 354C628.805 356.71 631.331 357.517 636.5 354.5C641.874 350.098 644.204 348.305 648.178 345.248L648.5 345C651.143 343.593 652.835 343.663 654.97 345C671.047 332.369 679.396 326.1 692.5 317.149C689.031 311.779 685.964 306.846 683.076 302C681.88 299.993 680.715 298.001 679.565 296C657.088 314.226 643.609 325.257 616.788 347.5C618.857 349.798 621.318 351.903 624.5 354Z" fill="#D9D9D9" stroke="black" stroke-width="1"/>
<path id="207" d="M606.611 327.5C606.579 328.341 606.542 329.176 606.5 330C610.104 337.583 612.67 342.926 616.788 347.5C643.609 325.257 657.088 314.226 679.565 296C676.536 290.729 673.61 285.39 670.5 279.531C664.141 284.14 657.967 288.668 651.696 293.322C645.795 297.7 639.808 302.19 633.5 306.963C625.26 313.198 616.472 319.916 606.611 327.5Z" fill="#D9D9D9" stroke="black" stroke-width="1"/>
<path id="208" d="M587 255.5C585.943 256.048 584.967 256.545 584.047 257C592.764 273.218 597.538 282.801 605.501 302C606.75 306.66 606.999 317.549 606.612 327.5C616.472 319.916 625.26 313.198 633.501 306.963C620.886 281.202 613.627 267.798 600.495 246C596.341 248.826 592.206 251.748 587 255.5Z" fill="#D9D9D9" stroke="black" stroke-width="1"/>
<path id="209" d="M620.191 232.5C618.329 233.971 616.479 235.412 614.999 236.5C609.288 240.137 604.88 243.015 600.494 246C613.626 267.798 620.885 281.202 633.5 306.963C639.808 302.19 645.795 297.7 651.696 293.322L620.191 232.5Z" fill="#D9D9D9" stroke="black" stroke-width="1"/>
<path id="210" d="M640.999 215C637.833 218.116 629.586 225.267 628.499 226C627.341 226.781 623.744 229.695 620.191 232.5L651.696 293.321C657.967 288.668 664.141 284.14 670.5 279.531C662.678 259.956 657.202 246.964 651.696 235.5C648.324 228.48 644.94 222.034 640.999 215Z" fill="#D9D9D9" stroke="black" stroke-width="1"/>
<path id="211" d="M672.508 590.5L672 592C668.264 611.798 665.988 623.952 661.774 647L714 667C718.274 650.818 720.576 638.284 725 609.855L714 605.799L672.508 590.5Z" fill="#D9D9D9" stroke="black" stroke-width="1"/>
<path id="212" d="M778 629.5C776.635 629.753 775.755 629.686 774 629C772.476 628.411 771.828 627.996 771.5 627L725 609.854C720.576 638.284 718.274 650.818 714 667C701.098 690.686 693.505 702.27 678.5 716.89L680 718L723.5 722.5L746.227 725C756.118 696.547 778.788 634.173 780.5 630.478L778 629.5Z" fill="#D9D9D9" stroke="black" stroke-width="1"/>
<path id="213" d="M773.5 728C774.667 726.833 777.5 724.3 779.5 723.5C781.5 722.7 785 723.167 786.5 723.5C788.5 725 792.4 728.6 792 731C791.946 731.322 791.887 731.657 791.818 732L828.928 735L836.785 652.5L780.5 630.478C778.788 634.174 756.118 696.548 746.228 725L773.5 728Z" fill="#D9D9D9" stroke="black" stroke-width="1"/>
<path id="214" d="M786.5 741C782.5 744 774 737.5 771.5 736.5C770.244 735.997 766.588 735.242 762.5 734.679L765.5 823.342C766.621 823.386 767.699 823.447 768.5 823.5L768.613 823.556C769.681 824.089 772.078 825.283 772 826.5C771.973 826.926 776.509 831.032 775.545 835L821.733 836.5L827.499 750L828.928 735L791.818 732C791.25 734.849 790.07 738.323 786.5 741Z" fill="#D9D9D9" stroke="black" stroke-width="1"/>
<path id="215" d="M813 966.5L820.5 855L821.733 836.5L775.545 835C775.294 836.032 774.672 837.054 773.5 838C767.891 842.531 767 843 764 842.5C761 842 756.5 839.5 753.5 838C751.1 836.8 747 841.167 745.5 844C744.5 849.167 741.556 860.882 743.5 862.5C745.296 863.994 751.691 867.923 754 871C755.834 872 760.719 880.68 748.5 888L807 999.057L810.143 999.5L813 966.5Z" fill="#D9D9D9" stroke="black" stroke-width="1"/>
<path id="216" d="M748.5 888C739.205 893.568 730.963 884.691 728.12 881.629L728 881.5L715.5 878L713 878.962L699.495 962.171L799.5 998L807 999.057L748.5 888Z" fill="#D9D9D9" stroke="black" stroke-width="1"/>
<path id="217" d="M696 885.5L666 875.5L637 870L623.5 934.462L672.5 952.5L699.495 962.171L713 878.962L696 885.5Z" fill="#D9D9D9" stroke="black" stroke-width="1"/>
<path id="218" d="M637 870L614 861L603.5 851L581 817L579.5 814.569C573.346 826.879 568.195 837.43 563.19 848C555.489 864.259 548.133 880.563 538 903.384C560.364 912.002 579.246 919 581.5 919L623.5 934.461L637 870Z" fill="#D9D9D9" stroke="black" stroke-width="1"/>
<path id="219" d="M513.5 830C509.603 838.466 507.193 842.776 502.5 849.5C494.501 859.36 488.449 865.987 476 879C492.258 885.503 516.707 895.178 538 903.384C548.133 880.563 555.489 864.26 563.19 848L514.719 827C514.261 828.071 513.853 829.075 513.5 830Z" fill="#D9D9D9" stroke="black" stroke-width="1"/>
<path id="220" d="M552 770C551.334 769.166 549.966 768.816 547 771.5C541.209 776.742 521.906 810.171 514.719 827L563.19 848C568.195 837.43 573.346 826.879 579.5 814.569L552 770Z" fill="#D9D9D9" stroke="black" stroke-width="1"/>
<path id="221" d="M191 703.999L187.5 722.999L182.5 747.499L177 776.499L168 822.499L159.5 867.499L152.5 905.499L149 927.999C148 934.999 146.5 941.499 148 942.999C148.895 943.484 150.083 943.733 153.5 943.999L165 944.999C173.307 945.543 177.75 946.016 185.5 946.999L187.18 947.225C194.724 948.239 199.434 948.871 206.5 949.999C222.615 953.052 230.179 954.703 242 957.499C253.599 960.331 259.845 961.669 270.5 963.499C271.371 963.731 272.202 963.956 273.001 964.175L289.001 923.5L305.5 927.999L313.501 927L334.001 880C330.97 880.848 328.519 881.211 321.501 881.5V876C320.2 847.463 318.535 831.784 316.501 803.5L270.001 762.588L238.645 735L212.001 711.557L200.001 701L192 698.04C191.932 699.771 191.3 702.652 191 703.999Z" fill="#D9D9D9" stroke="black" stroke-width="1"/>
</g>
<defs>
<clipPath id="clip0_714_2505">
<rect width="900" height="1241" fill="black"/>
</clipPath>
</defs>
</svg>
